<svg width="24" height="24" viewBox="0 0 24 24" fill="none" xmlns="http://www.w3.org/2000/svg">
<path fill-rule="evenodd" clip-rule="evenodd" d="M12 14C14.7615 14 17 11.7614 17 9C17 6.23859 14.7615 4 12 4C9.23853 4 7 6.23859 7 9C7 11.7614 9.23853 14 12 14ZM15.0029 14.5514C14.1096 15.0417 13.0156 15.3024 12 15.3024C10.9844 15.3024 9.89038 15.0417 8.99707 14.5514C8.07764 14.0467 6.87109 13.7134 6.04004 14.3484C4.87817 15.2362 4.18994 16.2714 4.01416 18.0427C3.99097 18.277 4.00171 19.043 4.00928 19.5654C4.01196 19.7544 4.01416 19.9115 4.01416 20H19.9861C19.9861 19.9115 19.9883 19.7544 19.991 19.5654C19.9983 19.043 20.0093 18.277 19.9861 18.0427C19.8101 16.2714 19.1218 15.2362 17.96 14.3484C17.1289 13.7134 15.9224 14.0467 15.0029 14.5514Z" fill="grey"/>
</svg>
