<svg width="24" height="24" viewBox="0 0 24 24" fill="none" xmlns="http://www.w3.org/2000/svg">
<path d="M13 12.9L13 19C13 20.1046 12.1046 21 11 21L6 21C4.89543 21 4 20.1046 4 19L4 5C4 3.89543 4.89543 3 6 3L12.1 3C12.5971 3 13 3.40294 13 3.9V3.9" stroke="#0E1715" stroke-width="2"/>
<path fill-rule="evenodd" clip-rule="evenodd" d="M12 2V13H21V4C21 2.89543 20.1046 2 19 2H12ZM13.4631 9.59827C13.2068 9.85438 13.2053 10.2693 13.4596 10.5273C13.7164 10.7879 14.1363 10.7894 14.395 10.5309L16.5 8.42748L18.605 10.5309C18.8637 10.7894 19.2836 10.7879 19.5404 10.5273C19.7947 10.2693 19.7932 9.85438 19.5369 9.59827L17.4333 7.49618L19.5224 5.40207C19.7782 5.14566 19.7794 4.73097 19.5252 4.47304C19.2682 4.21231 18.848 4.21074 18.5891 4.46953L16.5 6.55725L14.4109 4.46953C14.152 4.21074 13.7318 4.21231 13.4748 4.47304C13.2206 4.73097 13.2218 5.14566 13.4776 5.40207L15.5667 7.49618L13.4631 9.59827Z" fill="#EB5757"/>
</svg>
