<svg width="24" height="24" viewBox="0 0 24 24" fill="none" xmlns="http://www.w3.org/2000/svg">
<path fill-rule="evenodd" clip-rule="evenodd" d="M3 2C2.44772 2 2 2.44772 2 3V9C2 9.55229 2.44772 10 3 10C3.55228 10 4 9.55229 4 9V5.41421L8.29289 9.70711C8.68342 10.0976 9.31658 10.0976 9.70711 9.70711C10.0976 9.31658 10.0976 8.68342 9.70711 8.29289L5.41421 4H9C9.55228 4 10 3.55229 10 3C10 2.44772 9.55228 2 9 2H3ZM22 3C22 2.44772 21.5523 2 21 2H15C14.4477 2 14 2.44772 14 3C14 3.55228 14.4477 4 15 4L18.5858 4L14.2929 8.29289C13.9024 8.68342 13.9024 9.31658 14.2929 9.70711C14.6834 10.0976 15.3166 10.0976 15.7071 9.70711L20 5.41421V9C20 9.55229 20.4477 10 21 10C21.5523 10 22 9.55229 22 9V3ZM22 21C22 21.5523 21.5523 22 21 22H15C14.4477 22 14 21.5523 14 21C14 20.4477 14.4477 20 15 20H18.5858L14.2929 15.7071C13.9024 15.3166 13.9024 14.6834 14.2929 14.2929C14.6834 13.9024 15.3166 13.9024 15.7071 14.2929L20 18.5858V15C20 14.4477 20.4477 14 21 14C21.5523 14 22 14.4477 22 15V21ZM2 21C2 21.5523 2.44772 22 3 22H9C9.55228 22 10 21.5523 10 21C10 20.4477 9.55228 20 9 20H5.41421L9.70711 15.7071C10.0976 15.3166 10.0976 14.6834 9.70711 14.2929C9.31658 13.9024 8.68342 13.9024 8.29289 14.2929L4 18.5858L4 15C4 14.4477 3.55229 14 3 14C2.44772 14 2 14.4477 2 15V21Z" fill="black"/>
</svg>
