<svg width="24" height="24" viewBox="0 0 24 24" fill="none" xmlns="http://www.w3.org/2000/svg">
<rect x="7" y="9" width="10" height="6" rx="2" fill="#00D0A7"/>
<path fill-rule="evenodd" clip-rule="evenodd" d="M3 2C2.44772 2 2 2.44772 2 3V7C2 7.55229 2.44772 8 3 8C3.55228 8 4 7.55229 4 7V5.41421L6.29289 7.70711C6.68342 8.09763 7.31658 8.09763 7.70711 7.70711C8.09763 7.31658 8.09763 6.68342 7.70711 6.29289L5.41421 4H7C7.55228 4 8 3.55228 8 3C8 2.44772 7.55228 2 7 2H3ZM22 3C22 2.44772 21.5523 2 21 2H17C16.4477 2 16 2.44772 16 3C16 3.55228 16.4477 4 17 4H18.5858L16.2929 6.29289C15.9024 6.68342 15.9024 7.31658 16.2929 7.70711C16.6834 8.09763 17.3166 8.09763 17.7071 7.70711L20 5.41421V7C20 7.55228 20.4477 8 21 8C21.5523 8 22 7.55229 22 7V3ZM22 21C22 21.5523 21.5523 22 21 22H17C16.4477 22 16 21.5523 16 21C16 20.4477 16.4477 20 17 20H18.5858L16.2929 17.7071C15.9024 17.3166 15.9024 16.6834 16.2929 16.2929C16.6834 15.9024 17.3166 15.9024 17.7071 16.2929L20 18.5858V17C20 16.4477 20.4477 16 21 16C21.5523 16 22 16.4477 22 17V21ZM2 21C2 21.5523 2.44772 22 3 22H7C7.55228 22 8 21.5523 8 21C8 20.4477 7.55229 20 7 20H5.41421L7.70711 17.7071C8.09763 17.3166 8.09763 16.6834 7.70711 16.2929C7.31658 15.9024 6.68342 15.9024 6.29289 16.2929L4 18.5858L4 17C4 16.4477 3.55229 16 3 16C2.44772 16 2 16.4477 2 17V21Z" fill="black"/>
</svg>
