<svg width="24" height="24" viewBox="0 0 24 24" fill="none" xmlns="http://www.w3.org/2000/svg">
<path fill-rule="evenodd" clip-rule="evenodd" d="M6 22C4.34315 22 3 20.6569 3 19L3 5C3 3.34315 4.34315 2 6 2L18 2C19.6569 2 21 3.34315 21 5L21 8.29412L19 8.29412L19 5C19 4.44772 18.5523 4 18 4L6 4C5.44771 4 5 4.44771 5 5L5 19C5 19.5523 5.44772 20 6 20L18 20C18.5523 20 19 19.5523 19 19L19 16L21 16L21 19C21 20.6569 19.6569 22 18 22L6 22Z" fill="#0E1715"/>
<path fill-rule="evenodd" clip-rule="evenodd" d="M13.1768 11.9031L20.2681 16.0001H21V18.0001V19.0001H19V17.5772L12.1763 13.6348L13.1768 11.9031Z" fill="#00D0A7"/>
</svg>
