<svg width="20" height="20" viewBox="0 0 20 20" fill="none" xmlns="http://www.w3.org/2000/svg">
<path d="M1.31321 18.6495C0.5865 17.9123 0.590958 16.7268 1.3232 15.9951L7.33333 9.98909L1.36452 4.00592C0.633682 3.27332 0.630145 2.0885 1.3566 1.35154C2.09092 0.60661 3.29139 0.602112 4.03127 1.34152L10 7.30643L15.9687 1.34152C16.7086 0.602114 17.9091 0.60661 18.6434 1.35154C19.3699 2.0885 19.3663 3.27332 18.6355 4.00592L12.6667 9.98909L18.6768 15.9951C19.409 16.7268 19.4135 17.9123 18.6868 18.6495C17.953 19.3939 16.7535 19.3984 16.0142 18.6596L10 12.6499L3.98583 18.6596C3.24648 19.3984 2.04696 19.3939 1.31321 18.6495Z" fill="#0E1715"/>
</svg>
