<svg width="32" height="32" viewBox="0 0 32 32" fill="none" xmlns="http://www.w3.org/2000/svg">
<path fill-rule="evenodd" clip-rule="evenodd" d="M18.2374 0H13.4738C6.03236 3.39085e-05 0 6.03241 0 13.4738V18.2374V23.579V26.9475H3.36847H8.71006H13.4738C20.915 26.9475 26.9474 20.9151 26.9475 13.4738V8.71001V3.36843V0H23.579H18.2374ZM10.1054 13.4739C10.1054 15.3342 11.6136 16.8423 13.4739 16.8423C15.3342 16.8423 16.8423 15.3342 16.8423 13.4739C16.8423 11.6136 15.3342 10.1054 13.4739 10.1054C11.6136 10.1054 10.1054 11.6136 10.1054 13.4739ZM13.4739 23.5789C19.0548 23.5789 23.5792 19.0547 23.5792 13.4736C23.5792 7.89265 19.0548 3.36835 13.4739 3.36835C7.89287 3.36835 3.36855 7.89265 3.36855 13.4736C3.36855 19.0547 7.89287 23.5789 13.4739 23.5789ZM32.0001 23.5788C32.0001 22.6487 31.246 21.8947 30.3158 21.8947C29.3858 21.8947 28.6317 22.6487 28.6317 23.5788C28.6638 24.9772 28.2407 25.9829 27.3456 26.9469C26.418 27.9832 25.0753 28.6315 23.5791 28.6315C22.6489 28.6315 21.8949 29.3856 21.8949 30.3157C21.8949 31.2459 22.6489 32 23.5791 32C26.0733 32 28.3159 30.9135 29.8554 29.1933C31.0938 27.7736 31.968 25.6314 32.0001 23.5788Z" fill="#00D0A7"/>
<path fill-rule="evenodd" clip-rule="evenodd" d="M18.2374 0H13.4738C6.03236 3.39085e-05 0 6.03241 0 13.4738V18.2374V23.579V26.9475H3.36847H8.71006H13.4738C20.915 26.9475 26.9474 20.9151 26.9475 13.4738V8.71001V3.36843V0H23.579H18.2374ZM10.1054 13.4739C10.1054 15.3342 11.6136 16.8423 13.4739 16.8423C15.3342 16.8423 16.8423 15.3342 16.8423 13.4739C16.8423 11.6136 15.3342 10.1054 13.4739 10.1054C11.6136 10.1054 10.1054 11.6136 10.1054 13.4739ZM13.4739 23.5789C19.0548 23.5789 23.5792 19.0547 23.5792 13.4736C23.5792 7.89265 19.0548 3.36835 13.4739 3.36835C7.89287 3.36835 3.36855 7.89265 3.36855 13.4736C3.36855 19.0547 7.89287 23.5789 13.4739 23.5789ZM32.0001 23.5788C32.0001 22.6487 31.246 21.8947 30.3158 21.8947C29.3858 21.8947 28.6317 22.6487 28.6317 23.5788C28.6638 24.9772 28.2407 25.9829 27.3456 26.9469C26.418 27.9832 25.0753 28.6315 23.5791 28.6315C22.6489 28.6315 21.8949 29.3856 21.8949 30.3157C21.8949 31.2459 22.6489 32 23.5791 32C26.0733 32 28.3159 30.9135 29.8554 29.1933C31.0938 27.7736 31.968 25.6314 32.0001 23.5788Z" fill="url(#paint0_linear)"/>
<defs>
<linearGradient id="paint0_linear" x1="25.2632" y1="1.68417" x2="11.7895" y2="33.6843" gradientUnits="userSpaceOnUse">
<stop stop-color="#116CD2"/>
<stop offset="1" stop-color="white" stop-opacity="0"/>
</linearGradient>
</defs>
</svg>
