<svg width="24" height="24" viewBox="0 0 24 24" fill="none" xmlns="http://www.w3.org/2000/svg">
<path d="M7 6H22V8.4H7V6Z" fill="#0E1715"/>
<path d="M7 10.8H22V13.2H7V10.8Z" fill="#0E1715"/>
<path d="M7 15.6H22V18H7V15.6Z" fill="#0E1715"/>
<path d="M2 7.2C2 6.53726 2.55964 6 3.25 6C3.94036 6 4.5 6.53726 4.5 7.2C4.5 7.86274 3.94036 8.4 3.25 8.4C2.55964 8.4 2 7.86274 2 7.2Z" fill="#0E1715"/>
<path d="M2 12C2 11.3373 2.55964 10.8 3.25 10.8C3.94036 10.8 4.5 11.3373 4.5 12C4.5 12.6627 3.94036 13.2 3.25 13.2C2.55964 13.2 2 12.6627 2 12Z" fill="#0E1715"/>
<path d="M2 16.8C2 16.1373 2.55964 15.6 3.25 15.6C3.94036 15.6 4.5 16.1373 4.5 16.8C4.5 17.4627 3.94036 18 3.25 18C2.55964 18 2 17.4627 2 16.8Z" fill="#0E1715"/>
</svg>
