<svg width="14" height="9" viewBox="0 0 14 9" fill="none" xmlns="http://www.w3.org/2000/svg">
<path d="M3.5 0.263184H14V1.94318H3.5V0.263184Z" fill="#0E1715"/>
<path d="M3.5 3.62318H14V5.30318H3.5V3.62318Z" fill="#0E1715"/>
<path d="M3.5 6.98318H14V8.66318H3.5V6.98318Z" fill="#0E1715"/>
<path d="M0 1.10318C0 0.639264 0.391751 0.263184 0.875 0.263184C1.35825 0.263184 1.75 0.639264 1.75 1.10318C1.75 1.5671 1.35825 1.94318 0.875 1.94318C0.391751 1.94318 0 1.5671 0 1.10318Z" fill="#0E1715"/>
<path d="M0 4.46318C0 3.99926 0.391751 3.62318 0.875 3.62318C1.35825 3.62318 1.75 3.99926 1.75 4.46318C1.75 4.9271 1.35825 5.30318 0.875 5.30318C0.391751 5.30318 0 4.9271 0 4.46318Z" fill="#0E1715"/>
<path d="M0 7.82318C0 7.35926 0.391751 6.98318 0.875 6.98318C1.35825 6.98318 1.75 7.35926 1.75 7.82318C1.75 8.2871 1.35825 8.66318 0.875 8.66318C0.391751 8.66318 0 8.2871 0 7.82318Z" fill="#0E1715"/>
</svg>
