<svg width="71" height="24" viewBox="0 0 71 24" fill="none" xmlns="http://www.w3.org/2000/svg">
<path fill-rule="evenodd" clip-rule="evenodd" d="M10.9424 4H8.08423C3.61938 4.00002 0 7.61943 0 12.0842V14.9424V18.1473V20.1684H2.02112H5.22595H8.08423C12.549 20.1684 16.1683 16.549 16.1683 12.0842V9.22598V6.02104V4H14.1473H10.9424ZM6.06323 12.0842C6.06323 13.2003 6.96814 14.1052 8.08435 14.1052C9.20044 14.1052 10.1053 13.2003 10.1053 12.0842C10.1053 10.968 9.20044 10.0631 8.08435 10.0631C6.96814 10.0631 6.06323 10.968 6.06323 12.0842ZM8.08435 18.1474C11.4329 18.1474 14.1475 15.4328 14.1475 12.0842C14.1475 8.73564 11.4329 6.02107 8.08435 6.02107C4.73572 6.02107 2.02112 8.73564 2.02112 12.0842C2.02112 15.4328 4.73572 18.1474 8.08435 18.1474ZM19.2 18.1473C19.2 17.5892 18.7476 17.1368 18.1895 17.1368C17.6313 17.1368 17.179 17.5892 17.179 18.1473C17.1982 18.9863 16.9443 19.5897 16.4072 20.1681C15.8507 20.7899 15.045 21.1788 14.1473 21.1788C13.5892 21.1788 13.1368 21.6313 13.1368 22.1894C13.1368 22.7475 13.5892 23.1999 14.1473 23.1999C15.6439 23.1999 16.9894 22.548 17.9132 21.5159C18.6561 20.6641 19.1807 19.3788 19.2 18.1473Z" fill="#00D0A7"/>
<path fill-rule="evenodd" clip-rule="evenodd" d="M10.9424 4H8.08423C3.61938 4.00002 0 7.61943 0 12.0842V14.9424V18.1473V20.1684H2.02112H5.22595H8.08423C12.549 20.1684 16.1683 16.549 16.1683 12.0842V9.22598V6.02104V4H14.1473H10.9424ZM6.06323 12.0842C6.06323 13.2003 6.96814 14.1052 8.08435 14.1052C9.20044 14.1052 10.1053 13.2003 10.1053 12.0842C10.1053 10.968 9.20044 10.0631 8.08435 10.0631C6.96814 10.0631 6.06323 10.968 6.06323 12.0842ZM8.08435 18.1474C11.4329 18.1474 14.1475 15.4328 14.1475 12.0842C14.1475 8.73564 11.4329 6.02107 8.08435 6.02107C4.73572 6.02107 2.02112 8.73564 2.02112 12.0842C2.02112 15.4328 4.73572 18.1474 8.08435 18.1474ZM19.2 18.1473C19.2 17.5892 18.7476 17.1368 18.1895 17.1368C17.6313 17.1368 17.179 17.5892 17.179 18.1473C17.1982 18.9863 16.9443 19.5897 16.4072 20.1681C15.8507 20.7899 15.045 21.1788 14.1473 21.1788C13.5892 21.1788 13.1368 21.6313 13.1368 22.1894C13.1368 22.7475 13.5892 23.1999 14.1473 23.1999C15.6439 23.1999 16.9894 22.548 17.9132 21.5159C18.6561 20.6641 19.1807 19.3788 19.2 18.1473Z" fill="url(#paint0_linear)"/>
<path fill-rule="evenodd" clip-rule="evenodd" d="M48.7882 23.3333H51.9532V0H48.7882V23.3333ZM25.6 3.33333L28.8942 6.66664L28.9346 23.3333H25.6V3.33333ZM35.3533 14.2767V23.3333H32.1882V6.60374H35.3533V8.76299C36.1141 7.22655 38.2362 6.35217 40.3552 6.35217C42.0508 6.35217 43.4166 6.9287 44.4528 8.08173C45.5078 9.23477 46.0353 10.9014 46.0353 13.0817V23.3333H42.8702V14.1509C42.8702 11.0691 41.7211 9.52827 39.4226 9.52827C38.33 9.52827 37.3785 9.93707 36.5685 10.7547C35.7583 11.5513 35.3533 12.7253 35.3533 14.2767ZM62.494 21.0803C61.1199 21.0803 59.981 20.6132 59.0775 19.6789C58.1927 18.7251 57.7504 17.4988 57.7504 16C57.7504 14.5013 58.1927 13.2847 59.0775 12.3504C59.981 11.3967 61.1199 10.9198 62.494 10.9198C63.8682 10.9198 64.9976 11.3967 65.8822 12.3504C66.7858 13.2847 67.2375 14.5013 67.2375 16C67.2375 17.4988 66.7858 18.7251 65.8822 19.6789C64.9976 20.6132 63.8682 21.0803 62.494 21.0803ZM62.494 24C64.7528 24 66.6353 23.2312 68.1411 21.6935C69.647 20.1363 70.3999 18.2385 70.3999 16C70.3999 13.7616 69.647 11.8735 68.1411 10.3358C66.6353 8.77866 64.7528 8.00006 62.494 8.00006C60.2351 8.00006 58.3528 8.77866 56.8468 10.3358C55.3409 11.8735 54.588 13.7616 54.588 16C54.588 18.2385 55.3409 20.1363 56.8468 21.6935C58.3528 23.2312 60.2351 24 62.494 24Z" fill="#00D0A7"/>
<path fill-rule="evenodd" clip-rule="evenodd" d="M48.7882 23.3333H51.9532V0H48.7882V23.3333ZM25.6 3.33333L28.8942 6.66664L28.9346 23.3333H25.6V3.33333ZM35.3533 14.2767V23.3333H32.1882V6.60374H35.3533V8.76299C36.1141 7.22655 38.2362 6.35217 40.3552 6.35217C42.0508 6.35217 43.4166 6.9287 44.4528 8.08173C45.5078 9.23477 46.0353 10.9014 46.0353 13.0817V23.3333H42.8702V14.1509C42.8702 11.0691 41.7211 9.52827 39.4226 9.52827C38.33 9.52827 37.3785 9.93707 36.5685 10.7547C35.7583 11.5513 35.3533 12.7253 35.3533 14.2767ZM62.494 21.0803C61.1199 21.0803 59.981 20.6132 59.0775 19.6789C58.1927 18.7251 57.7504 17.4988 57.7504 16C57.7504 14.5013 58.1927 13.2847 59.0775 12.3504C59.981 11.3967 61.1199 10.9198 62.494 10.9198C63.8682 10.9198 64.9976 11.3967 65.8822 12.3504C66.7858 13.2847 67.2375 14.5013 67.2375 16C67.2375 17.4988 66.7858 18.7251 65.8822 19.6789C64.9976 20.6132 63.8682 21.0803 62.494 21.0803ZM62.494 24C64.7528 24 66.6353 23.2312 68.1411 21.6935C69.647 20.1363 70.3999 18.2385 70.3999 16C70.3999 13.7616 69.647 11.8735 68.1411 10.3358C66.6353 8.77866 64.7528 8.00006 62.494 8.00006C60.2351 8.00006 58.3528 8.77866 56.8468 10.3358C55.3409 11.8735 54.588 13.7616 54.588 16C54.588 18.2385 55.3409 20.1363 56.8468 21.6935C58.3528 23.2312 60.2351 24 62.494 24Z" fill="url(#paint1_linear)"/>
<defs>
<linearGradient id="paint0_linear" x1="15.1578" y1="5.01049" x2="7.07363" y2="24.2104" gradientUnits="userSpaceOnUse">
<stop stop-color="#116CD2"/>
<stop offset="1" stop-color="white" stop-opacity="0"/>
</linearGradient>
<linearGradient id="paint1_linear" x1="60.9683" y1="1.26312" x2="54.9036" y2="28.15" gradientUnits="userSpaceOnUse">
<stop stop-color="#116CD2"/>
<stop offset="1" stop-color="white" stop-opacity="0"/>
</linearGradient>
</defs>
</svg>
