<svg width="24" height="24" viewBox="0 0 24 24" fill="none" xmlns="http://www.w3.org/2000/svg">
<rect x="2" y="13" width="9" height="9" rx="2" fill="#00D0A7"/>
<path fill-rule="evenodd" clip-rule="evenodd" d="M5 1.99976H4C3.72882 1.99976 3 1.99976 2.5 2.49976C2 2.99976 2 3.30011 2 3.99976V4.99976H4L4.00053 3.99897L5 3.99976V1.99976ZM2 8.99976H4V6.99976H2V8.99976ZM7 1.99976V3.99976H9V1.99976H7ZM11 1.99976V3.99976H13V1.99976H11ZM15 1.99976V3.99976H17V1.99976H15ZM22 6.99976H20V8.99976H22V6.99976ZM22 10.9998H20V12.9998H22V10.9998ZM22 14.9998H20V16.9998H22V14.9998ZM17 21.9998V19.9998H15V21.9998H17ZM22 4V5H20L20.0008 4.00053L19 4L19 2L20 2C20.6996 2 21 2 21.5 2.5C22 3 22 3.72882 22 4ZM19.0005 21.999H20.0005C20.2717 21.999 21.0005 21.999 21.5005 21.499C22.0005 20.999 22.0005 20.6986 22.0005 19.999V18.999L20.0005 18.999L20 19.9998L19.0005 19.999V21.999ZM18 7C18 6.44772 17.5523 6 17 6H13C12.4477 6 12 6.44772 12 7C12 7.55228 12.4477 8 13 8H14.5858L11.2929 11.2929C10.9024 11.6834 10.9024 12.3166 11.2929 12.7071C11.6834 13.0976 12.3166 13.0976 12.7071 12.7071L16 9.41421V11C16 11.5523 16.4477 12 17 12C17.5523 12 18 11.5523 18 11V7Z" fill="black"/>
</svg>
